<svg width="415" height="372" viewBox="0 0 415 372" fill="none" xmlns="http://www.w3.org/2000/svg">
<path d="M26.2285 25.3357C26.2285 25.3357 29.6327 22.0572 26.5707 19.2767C26.5707 19.2767 30.5552 20.6886 32.4002 17.9515C32.4002 17.9515 30.3516 21.1087 32.3698 23.9022C32.3698 23.9022 29.9445 21.9489 26.2285 25.3357Z" fill="white"/>
<path d="M8.15343 59.5027C-12.874 53.6144 -9.8077 71.2791 -5.42699 71.2791C-3.6272 71.2791 0.103571 71.7153 4.64915 71.7153H18.4486C35.9715 71.7153 41.0094 70.5522 41.2287 70.1887C42.762 58.6303 33.4893 59.7208 28.5244 61.0292C29.3276 56.7403 28.4805 48.0752 18.6673 47.7263C8.85409 47.3773 7.56922 55.4318 8.15343 59.5027Z" fill="#1F265E"/>
<path d="M50.6663 50.3882C50.6663 50.3882 47.2857 43.9581 41.869 47.2863C41.869 47.2863 45.6609 42.0098 42.4112 38.1132C42.4112 38.1132 46.1938 42.4903 51.1823 40.7084C51.1823 40.7084 47.2595 43.4514 50.6663 50.3882Z" fill="#6D75B0"/>
<path d="M371.487 38.0831C343.724 30.2745 347.772 53.7001 353.556 53.7001C355.933 53.7001 360.859 54.2785 366.86 54.2785H385.08C408.216 54.2785 414.868 52.7361 415.158 52.2541C417.182 36.9263 404.939 38.3723 398.384 40.1075C399.444 34.4198 398.326 22.9288 385.369 22.466C372.412 22.0033 370.716 32.6846 371.487 38.0831Z" fill="#1F265E"/>
<path d="M219.289 76.7151C182.8 66.4525 188.121 97.2402 195.723 97.2402C198.846 97.2402 205.32 98.0004 213.208 98.0004H237.154C267.561 98.0004 276.303 95.9732 276.684 95.3397C279.344 75.1947 263.254 77.0952 254.638 79.3757C256.032 71.9005 254.562 56.7981 237.533 56.19C220.505 55.5818 218.275 69.62 219.289 76.7151Z" fill="#1F265E"/>
<path d="M10.1777 250.052C-8.58999 244.774 -5.85321 260.609 -1.94328 260.609C-0.336909 260.609 2.99292 261 7.05 261H19.3665C35.0062 261 39.5027 259.957 39.6984 259.632C41.0669 249.27 32.7908 250.248 28.3595 251.421C29.0763 247.576 28.3203 239.808 19.5617 239.495C10.803 239.182 9.65626 246.403 10.1777 250.052Z" fill="#1F265E"/>
<path d="M344.134 343.925C296.134 330.425 303.134 370.925 313.134 370.925C317.242 370.925 325.758 371.925 336.135 371.925H367.635C407.634 371.925 419.134 369.259 419.635 368.425C423.135 341.925 401.968 344.425 390.635 347.425C392.468 337.592 390.534 317.725 368.134 316.925C345.733 316.125 342.8 334.592 344.134 343.925Z" fill="#1F265E"/>
<g filter="url(#filter0_f)">
<circle cx="129.243" cy="40.1764" r="25.37" fill="#D3D4DE"/>
<circle cx="120.481" cy="28.472" r="4.65732" fill="#C5C6D0"/>
<circle cx="139.711" cy="39.9621" r="6.75236" fill="#F1F1F3"/>
<path fill-rule="evenodd" clip-rule="evenodd" d="M148.072 57.1791C145.072 60.4994 141.206 63.0224 136.831 64.3921C136.452 63.5487 136.241 62.6136 136.241 61.6292C136.241 57.9 139.264 54.8768 142.994 54.8768C145.018 54.8768 146.835 55.7678 148.072 57.1791Z" fill="#C5C6D0"/>
<circle cx="123.499" cy="56.1706" r="3.01873" fill="#C5C6D0"/>
</g>
<circle cx="132.967" cy="38.389" r="25.37" fill="#D3D4DE"/>
<circle cx="124.205" cy="26.6846" r="4.65732" fill="#C5C6D0"/>
<circle cx="143.435" cy="38.1748" r="6.75236" fill="#F1F1F3"/>
<path fill-rule="evenodd" clip-rule="evenodd" d="M151.797 55.3918C148.797 58.712 144.931 61.235 140.555 62.6047C140.176 61.7614 139.966 60.8262 139.966 59.8418C139.966 56.1126 142.989 53.0895 146.718 53.0895C148.743 53.0895 150.559 53.9805 151.797 55.3918Z" fill="#C5C6D0"/>
<circle cx="127.224" cy="54.3833" r="3.01873" fill="#C5C6D0"/>
<circle cx="149.188" cy="29.0135" r="25.37" fill="#03174C"/>
<defs>
<filter id="filter0_f" x="89.8726" y="0.806335" width="78.74" height="78.74" filterUnits="userSpaceOnUse" color-interpolation-filters="sRGB">
<feFlood flood-opacity="0" result="BackgroundImageFix"/>
<feBlend mode="normal" in="SourceGraphic" in2="BackgroundImageFix" result="shape"/>
<feGaussianBlur stdDeviation="7" result="effect1_foregroundBlur"/>
</filter>
</defs>
</svg>
