<svg width="415" height="896" viewBox="0 0 415 896" fill="none" xmlns="http://www.w3.org/2000/svg">
<path opacity="0.3" d="M287.26 -3.64454C376.07 87.2155 445.02 197.385 487.92 316.975C490.08 322.985 492.2 329.305 491.32 335.625C490.44 341.945 485.56 348.195 479.17 348.375C473.56 348.525 468.94 344.245 465 340.245C453.02 328.085 441.03 315.935 429.05 303.775C420.23 294.835 407.63 285.165 396.45 290.885C389.1 294.655 386.14 304.045 387.34 312.215C388.54 320.385 392.99 327.655 397.27 334.715C397.27 334.715 533.49 605.435 552.18 704.625C536.3 602.825 504.62 508.045 459.49 415.425C455.87 408.005 451.41 396.055 450.96 387.805C450.51 379.555 454.31 370.465 461.97 367.385C473.62 362.695 485.3 373.475 493.26 383.185C504.09 396.385 514.92 409.575 525.75 422.775C529.31 427.115 533.52 431.805 539.12 432.155C545.49 432.565 550.92 426.785 552.37 420.565C553.82 414.345 552.28 407.865 550.68 401.685C518.83 278.685 436.23 111.665 334.23 5.66546L287.26 -3.64454Z" fill="#554872"/>
<path opacity="0.3" d="M-52.9496 460.205C35.8604 551.065 104.81 661.235 147.71 780.825C149.87 786.835 151.99 793.155 151.11 799.475C150.23 805.795 145.35 812.045 138.96 812.225C133.35 812.375 128.73 808.095 124.79 804.095C112.81 791.935 100.82 779.785 88.8404 767.625C80.0204 758.685 67.4204 749.015 56.2404 754.735C48.8904 758.505 45.9304 767.895 47.1304 776.065C48.3304 784.235 52.7804 791.505 57.0604 798.565C57.0604 798.565 193.28 1069.29 211.97 1168.48C196.09 1066.68 164.41 971.895 119.28 879.275C115.66 871.855 111.2 859.905 110.75 851.655C110.3 843.405 114.1 834.315 121.76 831.235C133.41 826.545 145.09 837.325 153.05 847.035C163.88 860.235 174.71 873.425 185.54 886.625C189.1 890.965 193.31 895.655 198.91 896.005C205.28 896.415 210.71 890.635 212.16 884.415C213.61 878.195 212.07 871.715 210.47 865.535C178.62 742.535 96.0204 575.515 -5.9796 469.515L-52.9496 460.205Z" fill="#554872"/>
<path opacity="0.3" d="M-33.4396 340.425C0.520347 341.435 -29.6596 550.425 -19.5196 518.005C8.4804 428.505 93.7004 441.745 152.48 503.005C187.98 540.005 247.44 643.885 276.49 677.515C283.38 685.495 291.66 693.505 302.14 694.735C315.33 696.285 327.63 686.045 332.87 673.835C341.93 652.735 338.51 624.285 335.91 602.155C331.93 568.195 322.73 535.075 313.03 502.375C298.4 453.105 278.56 405.425 254.88 359.845C254.66 359.425 254.45 359.015 254.23 358.605C224.61 301.825 188.13 248.605 145.63 200.695C129.18 182.155 110.31 165.905 89.6004 152.295C185.76 249.825 262.01 388.895 302.98 541.485C306.14 553.265 309.14 565.405 309.22 577.465C309.3 589.525 305.96 601.675 298.75 607.095C290.56 613.255 277.98 611.005 270.7 601.055C263.67 591.445 255.64 580.895 249.2 569.395C216.9 511.675 181.13 457.505 142.51 407.805C125.06 385.345 106.83 363.605 86.3404 347.635C65.8504 331.675 42.7604 321.745 20.9704 324.655L-33.4396 340.425Z" fill="#554872"/>
<path opacity="0.3" d="M53.5703 -41.6545C55.2103 -41.6845 168.98 128.625 239.88 300.655C198.24 228.345 135.57 131.675 1.05038 22.1455C1.16038 22.2355 17.5804 3.46545 19.0904 1.75545C24.4604 -4.31455 49.9803 -41.5845 53.5703 -41.6545Z" fill="#554872"/>
<path opacity="0.4" d="M360.92 358.516C360.92 359.482 361.704 360.266 362.67 360.266C363.637 360.266 364.42 359.482 364.42 358.516C364.42 357.549 363.637 356.766 362.67 356.766C361.704 356.766 360.92 357.549 360.92 358.516Z" fill="white"/>
<path opacity="0.4" d="M94.4905 367.765C94.4905 368.732 95.274 369.515 96.2405 369.515C97.207 369.515 97.9905 368.732 97.9905 367.765C97.9905 366.799 97.207 366.015 96.2405 366.015C95.274 366.015 94.4905 366.799 94.4905 367.765Z" fill="white"/>
<path opacity="0.4" d="M132.23 536.395C132.23 537.362 133.014 538.145 133.98 538.145C134.947 538.145 135.73 537.362 135.73 536.395C135.73 535.429 134.947 534.645 133.98 534.645C133.014 534.645 132.23 535.429 132.23 536.395Z" fill="white"/>
<path opacity="0.4" d="M79.4104 602.195C79.4104 603.162 80.1939 603.945 81.1604 603.945C82.1269 603.945 82.9104 603.162 82.9104 602.195C82.9104 601.229 82.1269 600.445 81.1604 600.445C80.1939 600.445 79.4104 601.229 79.4104 602.195Z" fill="white"/>
<path opacity="0.4" d="M413.13 592.895C413.13 593.862 413.914 594.645 414.88 594.645C415.847 594.645 416.63 593.862 416.63 592.895C416.63 591.929 415.847 591.145 414.88 591.145C413.914 591.145 413.13 591.929 413.13 592.895Z" fill="white"/>
<path opacity="0.4" d="M186.8 706.045C186.8 707.012 187.584 707.795 188.55 707.795C189.517 707.795 190.3 707.012 190.3 706.045C190.3 705.079 189.517 704.295 188.55 704.295C187.584 704.295 186.8 705.079 186.8 706.045Z" fill="white"/>
<path opacity="0.4" d="M207.74 485.015C207.74 485.982 208.524 486.765 209.49 486.765C210.457 486.765 211.24 485.982 211.24 485.015C211.24 484.049 210.457 483.265 209.49 483.265C208.524 483.265 207.74 484.049 207.74 485.015Z" fill="white"/>
<path opacity="0.4" d="M196.49 401.675C196.49 402.642 197.274 403.425 198.24 403.425C199.207 403.425 199.99 402.642 199.99 401.675C199.99 400.709 199.207 399.925 198.24 399.925C197.274 399.925 196.49 400.709 196.49 401.675Z" fill="white"/>
<path opacity="0.4" d="M86.7405 201.015C86.7405 201.982 87.524 202.765 88.4905 202.765C89.457 202.765 90.2405 201.982 90.2405 201.015C90.2405 200.049 89.457 199.265 88.4905 199.265C87.524 199.265 86.7405 200.049 86.7405 201.015Z" fill="white"/>
<path opacity="0.4" d="M391.34 299.675C391.34 300.642 392.124 301.425 393.09 301.425C394.057 301.425 394.84 300.642 394.84 299.675C394.84 298.709 394.057 297.925 393.09 297.925C392.124 297.925 391.34 298.709 391.34 299.675Z" fill="white"/>
<path opacity="0.4" d="M290.49 169.015C290.49 169.982 291.274 170.765 292.24 170.765C293.207 170.765 293.99 169.982 293.99 169.015C293.99 168.049 293.207 167.265 292.24 167.265C291.274 167.265 290.49 168.049 290.49 169.015Z" fill="white"/>
<path opacity="0.4" d="M223.49 180.265C223.49 181.232 224.274 182.015 225.24 182.015C226.207 182.015 226.99 181.232 226.99 180.265C226.99 179.299 226.207 178.515 225.24 178.515C224.274 178.515 223.49 179.299 223.49 180.265Z" fill="white"/>
<path opacity="0.7" d="M357.3 419.945L358.42 425.955L359.54 419.945L361.77 421.485L360.24 419.245L366.25 418.125L360.24 417.015L361.77 414.775L359.54 416.305L358.42 410.305L357.3 416.305L355.06 414.775L356.6 417.015L350.59 418.125L356.6 419.245L355.06 421.485L357.3 419.945Z" fill="#E1D1FF"/>
<path opacity="0.7" d="M206.75 733.995L207.86 739.995L208.98 733.995L211.22 735.525L209.68 733.285L215.69 732.175L209.68 731.055L211.22 728.815L208.98 730.355L207.86 724.345L206.75 730.355L204.51 728.815L206.04 731.055L200.04 732.175L206.04 733.285L204.51 735.525L206.75 733.995Z" fill="#E1D1FF"/>
<path opacity="0.7" d="M216.49 594.445L217.61 600.445L218.73 594.445L220.97 595.976L219.43 593.736L225.44 592.626L219.43 591.505L220.97 589.266L218.73 590.806L217.61 584.796L216.49 590.806L214.26 589.266L215.79 591.505L209.78 592.626L215.79 593.736L214.26 595.976L216.49 594.445Z" fill="#E1D1FF"/>
<path opacity="0.7" d="M342.44 710.056L343.56 716.065L344.68 710.056L346.91 711.586L345.38 709.356L351.39 708.236L345.38 707.116L346.91 704.876L344.68 706.416L343.56 700.406L342.44 706.416L340.2 704.876L341.74 707.116L335.73 708.236L341.74 709.356L340.2 711.586L342.44 710.056Z" fill="#E1D1FF"/>
<path opacity="0.7" d="M167.72 279.285L168.83 285.296L169.95 279.285L172.19 280.815L170.65 278.585L176.66 277.465L170.65 276.345L172.19 274.105L169.95 275.645L168.83 269.635L167.72 275.645L165.48 274.105L167.01 276.345L161 277.465L167.01 278.585L165.48 280.815L167.72 279.285Z" fill="#E1D1FF"/>
<path opacity="0.7" d="M123.24 327.016L124.36 333.025L125.47 327.016L127.71 328.546L126.18 326.305L132.18 325.195L126.18 324.076L127.71 321.835L125.47 323.375L124.36 317.365L123.24 323.375L121 321.835L122.54 324.076L116.53 325.195L122.54 326.305L121 328.546L123.24 327.016Z" fill="#E1D1FF"/>
<path opacity="0.7" d="M394.14 229.005L395.26 235.015L396.38 229.005L398.62 230.545L397.08 228.305L403.09 227.185L397.08 226.065L398.62 223.835L396.38 225.365L395.26 219.355L394.14 225.365L391.91 223.835L393.44 226.065L387.43 227.185L393.44 228.305L391.91 230.545L394.14 229.005Z" fill="#E1D1FF"/>
<path opacity="0.7" d="M389.33 95.0155L390.45 101.025L391.57 95.0155L393.81 96.5455L392.27 94.3055L398.28 93.1955L392.27 92.0755L393.81 89.8355L391.57 91.3755L390.45 85.3655L389.33 91.3755L387.1 89.8355L388.63 92.0755L382.62 93.1955L388.63 94.3055L387.1 96.5455L389.33 95.0155Z" fill="#E1D1FF"/>
<path opacity="0.7" d="M83.7505 80.0255L84.8705 86.0355L85.9904 80.0255L88.2304 81.5555L86.6905 79.3255L92.7004 78.2055L86.6905 77.0855L88.2304 74.8455L85.9904 76.3855L84.8705 70.3755L83.7505 76.3855L81.5204 74.8455L83.0504 77.0855L77.0404 78.2055L83.0504 79.3255L81.5204 81.5555L83.7505 80.0255Z" fill="#E1D1FF"/>
</svg>
